grf
version=1
nRows=25
nColumns=46
inDegrees=yes
endheader
time	ground_force_1_vx	ground_force_1_vy	ground_force_1_vz	ground_force_1_px	ground_force_1_py	ground_force_1_pz	ground_moment_1_mx	ground_moment_1_my	ground_moment_1_mz	ground_force_2_vx	ground_force_2_vy	ground_force_2_vz	ground_force_2_px	ground_force_2_py	ground_force_2_pz	ground_moment_2_mx	ground_moment_2_my	ground_moment_2_mz	ground_force_3_vx	ground_force_3_vy	ground_force_3_vz	ground_force_3_px	ground_force_3_py	ground_force_3_pz	ground_moment_3_mx	ground_moment_3_my	ground_moment_3_mz	ground_force_4_vx	ground_force_4_vy	ground_force_4_vz	ground_force_4_px	ground_force_4_py	ground_force_4_pz	ground_moment_4_mx	ground_moment_4_my	ground_moment_4_mz	ground_force_5_vx	ground_force_5_vy	ground_force_5_vz	ground_force_5_px	ground_force_5_py	ground_force_5_pz	ground_moment_5_mx	ground_moment_5_my	ground_moment_5_mz
4.510000	0.000000	0.000000	0.000000	0.000000	0.000000	0.000000	0.000000	0.000000	0.000000	0.000000	0.000000	0.000000	0.000000	0.000000	0.000000	0.000000	0.000000	0.000000	0.000000	0.000000	0.000000	0.000000	0.000000	0.000000	0.000000	0.000000	0.000000	3.112751	441.764017	-71.868743	0.203304	0.000000	-1.068046	0.000000	5.217162	0.000000	-1.550632	450.095255	71.990228	0.220322	0.000000	-1.403552	0.000000	-4.297812	-0.000000
4.510500	0.000000	0.000000	0.000000	0.000000	0.000000	0.000000	0.000000	0.000000	0.000000	0.000000	0.000000	0.000000	0.000000	0.000000	0.000000	0.000000	0.000000	0.000000	0.000000	0.000000	0.000000	0.000000	0.000000	0.000000	0.000000	0.000000	0.000000	3.110451	441.773751	-71.863337	0.203302	0.000000	-1.068045	0.000000	5.217850	0.000000	-1.521325	450.049427	71.990560	0.220315	0.000000	-1.403545	0.000000	-4.298935	-0.000000
4.511000	0.000000	0.000000	0.000000	0.000000	0.000000	0.000000	0.000000	0.000000	0.000000	0.000000	0.000000	0.000000	0.000000	0.000000	0.000000	0.000000	0.000000	0.000000	0.000000	0.000000	0.000000	0.000000	0.000000	0.000000	0.000000	0.000000	0.000000	3.108217	441.783525	-71.857817	0.203300	0.000000	-1.068043	0.000000	5.218543	0.000000	-1.492025	450.004675	71.991043	0.220308	0.000000	-1.403538	0.000000	-4.300092	-0.000000
4.511500	0.000000	0.000000	0.000000	0.000000	0.000000	0.000000	0.000000	0.000000	0.000000	0.000000	0.000000	0.000000	0.000000	0.000000	0.000000	0.000000	0.000000	0.000000	0.000000	0.000000	0.000000	0.000000	0.000000	0.000000	0.000000	0.000000	0.000000	3.106051	441.793249	-71.852179	0.203299	0.000000	-1.068042	0.000000	5.219239	0.000000	-1.462769	449.960983	71.991646	0.220301	0.000000	-1.403530	0.000000	-4.301282	-0.000000
4.512000	0.000000	0.000000	0.000000	0.000000	0.000000	0.000000	0.000000	0.000000	0.000000	0.000000	0.000000	0.000000	0.000000	0.000000	0.000000	0.000000	0.000000	0.000000	0.000000	0.000000	0.000000	0.000000	0.000000	0.000000	0.000000	0.000000	0.000000	3.103961	441.802842	-71.846427	0.203297	0.000000	-1.068041	0.000000	5.219937	0.000000	-1.433584	449.918336	71.992343	0.220294	0.000000	-1.403522	0.000000	-4.302501	-0.000000
4.512500	0.000000	0.000000	0.000000	0.000000	0.000000	0.000000	0.000000	0.000000	0.000000	0.000000	0.000000	0.000000	0.000000	0.000000	0.000000	0.000000	0.000000	0.000000	0.000000	0.000000	0.000000	0.000000	0.000000	0.000000	0.000000	0.000000	0.000000	3.101952	441.812233	-71.840570	0.203295	0.000000	-1.068040	0.000000	5.220637	0.000000	-1.404499	449.876725	71.993100	0.220286	0.000000	-1.403514	0.000000	-4.303745	-0.000000
4.513000	0.000000	0.000000	0.000000	0.000000	0.000000	0.000000	0.000000	0.000000	0.000000	0.000000	0.000000	0.000000	0.000000	0.000000	0.000000	0.000000	0.000000	0.000000	0.000000	0.000000	0.000000	0.000000	0.000000	0.000000	0.000000	0.000000	0.000000	3.100031	441.821365	-71.834617	0.203294	0.000000	-1.068039	0.000000	5.221336	0.000000	-1.375538	449.836149	71.993888	0.220279	0.000000	-1.403506	0.000000	-4.305013	-0.000000
4.513500	0.000000	0.000000	0.000000	0.000000	0.000000	0.000000	0.000000	0.000000	0.000000	0.000000	0.000000	0.000000	0.000000	0.000000	0.000000	0.000000	0.000000	0.000000	0.000000	0.000000	0.000000	0.000000	0.000000	0.000000	0.000000	0.000000	0.000000	3.098204	441.830188	-71.828581	0.203292	0.000000	-1.068038	0.000000	5.222032	0.000000	-1.346724	449.796614	71.994677	0.220271	0.000000	-1.403497	0.000000	-4.306302	-0.000000
4.514000	0.000000	0.000000	0.000000	0.000000	0.000000	0.000000	0.000000	0.000000	0.000000	0.000000	0.000000	0.000000	0.000000	0.000000	0.000000	0.000000	0.000000	0.000000	0.000000	0.000000	0.000000	0.000000	0.000000	0.000000	0.000000	0.000000	0.000000	3.096478	441.838663	-71.822473	0.203291	0.000000	-1.068037	0.000000	5.222724	0.000000	-1.318076	449.758136	71.995448	0.220262	0.000000	-1.403488	0.000000	-4.307610	-0.000000
4.514500	0.000000	0.000000	0.000000	0.000000	0.000000	0.000000	0.000000	0.000000	0.000000	0.000000	0.000000	0.000000	0.000000	0.000000	0.000000	0.000000	0.000000	0.000000	0.000000	0.000000	0.000000	0.000000	0.000000	0.000000	0.000000	0.000000	0.000000	3.094863	441.846755	-71.816306	0.203289	0.000000	-1.068037	0.000000	5.223413	0.000000	-1.289613	449.720737	71.996181	0.220254	0.000000	-1.403479	0.000000	-4.308934	-0.000000
4.515000	0.000000	0.000000	0.000000	0.000000	0.000000	0.000000	0.000000	0.000000	0.000000	0.000000	0.000000	0.000000	0.000000	0.000000	0.000000	0.000000	0.000000	0.000000	0.000000	0.000000	0.000000	0.000000	0.000000	0.000000	0.000000	0.000000	0.000000	3.093375	441.854421	-71.810093	0.203288	0.000000	-1.068036	0.000000	5.224099	0.000000	-1.261358	449.684449	71.996860	0.220245	0.000000	-1.403469	0.000000	-4.310270	-0.000000
4.515500	0.000000	0.000000	0.000000	0.000000	0.000000	0.000000	0.000000	0.000000	0.000000	0.000000	0.000000	0.000000	0.000000	0.000000	0.000000	0.000000	0.000000	0.000000	0.000000	0.000000	0.000000	0.000000	0.000000	0.000000	0.000000	0.000000	0.000000	3.092029	441.861607	-71.803842	0.203286	0.000000	-1.068035	0.000000	5.224783	0.000000	-1.233336	449.649305	71.997470	0.220237	0.000000	-1.403460	0.000000	-4.311615	-0.000000
4.516000	0.000000	0.000000	0.000000	0.000000	0.000000	0.000000	0.000000	0.000000	0.000000	0.000000	0.000000	0.000000	0.000000	0.000000	0.000000	0.000000	0.000000	0.000000	0.000000	0.000000	0.000000	0.000000	0.000000	0.000000	0.000000	0.000000	0.000000	3.090837	441.868246	-71.797562	0.203285	0.000000	-1.068035	0.000000	5.225466	0.000000	-1.205575	449.615339	71.997990	0.220228	0.000000	-1.403450	0.000000	-4.312964	-0.000000
4.516500	0.000000	0.000000	0.000000	0.000000	0.000000	0.000000	0.000000	0.000000	0.000000	0.000000	0.000000	0.000000	0.000000	0.000000	0.000000	0.000000	0.000000	0.000000	0.000000	0.000000	0.000000	0.000000	0.000000	0.000000	0.000000	0.000000	0.000000	3.089807	441.874268	-71.791256	0.203283	0.000000	-1.068035	0.000000	5.226146	0.000000	-1.178101	449.582582	71.998399	0.220218	0.000000	-1.403440	0.000000	-4.314314	-0.000000
4.517000	0.000000	0.000000	0.000000	0.000000	0.000000	0.000000	0.000000	0.000000	0.000000	0.000000	0.000000	0.000000	0.000000	0.000000	0.000000	0.000000	0.000000	0.000000	0.000000	0.000000	0.000000	0.000000	0.000000	0.000000	0.000000	0.000000	0.000000	3.088944	441.879610	-71.784923	0.203282	0.000000	-1.068035	0.000000	5.226821	0.000000	-1.150936	449.551068	71.998672	0.220209	0.000000	-1.403430	0.000000	-4.315660	-0.000000
4.517500	0.000000	0.000000	0.000000	0.000000	0.000000	0.000000	0.000000	0.000000	0.000000	0.000000	0.000000	0.000000	0.000000	0.000000	0.000000	0.000000	0.000000	0.000000	0.000000	0.000000	0.000000	0.000000	0.000000	0.000000	0.000000	0.000000	0.000000	3.088248	441.884226	-71.778556	0.203280	0.000000	-1.068035	0.000000	5.227485	0.000000	-1.124107	449.520823	71.998780	0.220200	0.000000	-1.403420	0.000000	-4.316999	-0.000000
4.518000	0.000000	0.000000	0.000000	0.000000	0.000000	0.000000	0.000000	0.000000	0.000000	0.000000	0.000000	0.000000	0.000000	0.000000	0.000000	0.000000	0.000000	0.000000	0.000000	0.000000	0.000000	0.000000	0.000000	0.000000	0.000000	0.000000	0.000000	3.087715	441.888093	-71.772147	0.203279	0.000000	-1.068035	0.000000	5.228132	0.000000	-1.097648	449.491867	71.998692	0.220191	0.000000	-1.403409	0.000000	-4.318325	-0.000000
4.518500	0.000000	0.000000	0.000000	0.000000	0.000000	0.000000	0.000000	0.000000	0.000000	0.000000	0.000000	0.000000	0.000000	0.000000	0.000000	0.000000	0.000000	0.000000	0.000000	0.000000	0.000000	0.000000	0.000000	0.000000	0.000000	0.000000	0.000000	3.087338	441.891207	-71.765684	0.203277	0.000000	-1.068035	0.000000	5.228757	0.000000	-1.071601	449.464200	71.998370	0.220181	0.000000	-1.403399	0.000000	-4.319632	-0.000000
4.519000	0.000000	0.000000	0.000000	0.000000	0.000000	0.000000	0.000000	0.000000	0.000000	0.000000	0.000000	0.000000	0.000000	0.000000	0.000000	0.000000	0.000000	0.000000	0.000000	0.000000	0.000000	0.000000	0.000000	0.000000	0.000000	0.000000	0.000000	3.087111	441.893581	-71.759158	0.203275	0.000000	-1.068035	0.000000	5.229355	0.000000	-1.046018	449.437802	71.997781	0.220171	0.000000	-1.403389	0.000000	-4.320916	-0.000000
4.519500	0.000000	0.000000	0.000000	0.000000	0.000000	0.000000	0.000000	0.000000	0.000000	0.000000	0.000000	0.000000	0.000000	0.000000	0.000000	0.000000	0.000000	0.000000	0.000000	0.000000	0.000000	0.000000	0.000000	0.000000	0.000000	0.000000	0.000000	3.087030	441.895238	-71.752562	0.203274	0.000000	-1.068036	0.000000	5.229925	0.000000	-1.020951	449.412634	71.996895	0.220162	0.000000	-1.403379	0.000000	-4.322170	-0.000000
4.520000	0.000000	0.000000	0.000000	0.000000	0.000000	0.000000	0.000000	0.000000	0.000000	0.000000	0.000000	0.000000	0.000000	0.000000	0.000000	0.000000	0.000000	0.000000	0.000000	0.000000	0.000000	0.000000	0.000000	0.000000	0.000000	0.000000	0.000000	3.087098	441.896204	-71.745890	0.203272	0.000000	-1.068037	0.000000	5.230464	0.000000	-0.996447	449.388647	71.995694	0.220152	0.000000	-1.403369	0.000000	-4.323391	-0.000000
4.520500	0.000000	0.000000	0.000000	0.000000	0.000000	0.000000	0.000000	0.000000	0.000000	0.000000	0.000000	0.000000	0.000000	0.000000	0.000000	0.000000	0.000000	0.000000	0.000000	0.000000	0.000000	0.000000	0.000000	0.000000	0.000000	0.000000	0.000000	3.087314	441.896507	-71.739136	0.203271	0.000000	-1.068038	0.000000	5.230971	0.000000	-0.972550	449.365784	71.994164	0.220142	0.000000	-1.403359	0.000000	-4.324573	-0.000000
4.521000	0.000000	0.000000	0.000000	0.000000	0.000000	0.000000	0.000000	0.000000	0.000000	0.000000	0.000000	0.000000	0.000000	0.000000	0.000000	0.000000	0.000000	0.000000	0.000000	0.000000	0.000000	0.000000	0.000000	0.000000	0.000000	0.000000	0.000000	3.087674	441.896189	-71.732293	0.203269	0.000000	-1.068039	0.000000	5.231444	0.000000	-0.949299	449.343982	71.992295	0.220132	0.000000	-1.403349	0.000000	-4.325712	-0.000000
4.521500	0.000000	0.000000	0.000000	0.000000	0.000000	0.000000	0.000000	0.000000	0.000000	0.000000	0.000000	0.000000	0.000000	0.000000	0.000000	0.000000	0.000000	0.000000	0.000000	0.000000	0.000000	0.000000	0.000000	0.000000	0.000000	0.000000	0.000000	3.088166	441.895293	-71.725350	0.203268	0.000000	-1.068040	0.000000	5.231880	0.000000	-0.926726	449.323174	71.990076	0.220122	0.000000	-1.403339	0.000000	-4.326805	-0.000000
4.522000	0.000000	0.000000	0.000000	0.000000	0.000000	0.000000	0.000000	0.000000	0.000000	0.000000	0.000000	0.000000	0.000000	0.000000	0.000000	0.000000	0.000000	0.000000	0.000000	0.000000	0.000000	0.000000	0.000000	0.000000	0.000000	0.000000	0.000000	3.088776	441.893863	-71.718300	0.203266	0.000000	-1.068042	0.000000	5.232278	0.000000	-0.904857	449.303288	71.987500	0.220111	0.000000	-1.403330	0.000000	-4.327847	-0.000000
